<svg version="1" xmlns="http://www.w3.org/2000/svg" width="682.667" height="682.667" viewBox="0 0 512.000000 512.000000"><path d="M102 73.5c0 12.4.3 22.5.6 22.5.9 0 41.5-22.2 41.2-22.5-.9-.7-40.8-22.5-41.2-22.5-.4 0-.6 10.1-.6 22.5zM197.5 75.1c-10.9 6-20 11.1-20.2 11.2-.3.3 40.2 22.7 41.1 22.7.3 0 .6-10.1.6-22.5s-.3-22.5-.7-22.5c-.5.1-9.8 5-20.8 11.1zM122.6 92c-10.9 6-20.1 11.1-20.3 11.4-.2.2 7.1 4.6 16.4 9.6 9.2 5.1 18.7 10.4 21.1 11.7l4.2 2.5v-23.1c0-12.7-.3-23.1-.7-23.1-.5 0-9.8 5-20.7 11zM192 129.3v23.5l20.6-11.3c11.3-6.2 20.7-11.5 21-11.8.3-.3-7-4.7-16.3-9.7-9.2-5.1-18.7-10.4-21-11.7l-4.3-2.5v23.5zM102 129.5c0 12.4.2 22.5.6 22.5.4 0 40.2-21.7 41.1-22.5.4-.2-40.2-22.5-41-22.5-.4 0-.7 10.1-.7 22.5zM129 140.2c-8 4.4-17.3 9.6-20.8 11.5l-6.4 3.5 20.8 11.4c11.4 6.3 20.9 11.2 21.1 11 .2-.1.2-10.5.1-22.9l-.3-22.5-14.5 8zM213.3 143.4c-11.2 6.1-20.2 11.5-20 11.9.1.4 9.2 5.7 20.2 11.7l20 11 .3-11.5c.1-6.3.1-16.6 0-22.9l-.3-11.4-20.2 11.2zM84 181c0 12.6.3 23 .6 23 .7 0 33-17.5 39.2-21.2l3.3-2-20.7-11.4C95 163.1 85.3 158 84.8 158c-.4 0-.8 10.3-.8 23zM168.5 169c-11 6-20.1 11.3-20.2 11.7-.2.4 8.8 5.8 19.9 11.9l20.3 11.2.3-11.4c.1-6.3.1-16.6 0-22.9l-.3-11.5-20 11zM257.2 169.5l-20.3 11.3 3.3 1.9c6.2 3.8 38.5 21.3 39.2 21.3.3 0 .6-10.4.6-23 0-17.8-.3-23-1.2-22.9-.7.1-10.4 5.2-21.6 11.4zM282 180.9v23.2l3-1.6c7.1-3.7 37.6-20.7 38.2-21.3.5-.5-35.4-21-40.4-23-.4-.2-.8 10-.8 22.7zM212.3 195.3c-11.2 6.1-19.9 11.4-19.5 11.8.9.9 41.1 22.9 41.7 22.9.3 0 .5-10.4.5-23 0-17.7-.3-23-1.2-23-.7 0-10.4 5.1-21.5 11.3zM321 185.1c-.8.6-9.9 5.6-20.2 11.3L282 206.6l20.4 11.2c11.2 6.2 20.9 11.2 21.5 11.2.8 0 1.1-6.6 1.1-22.5 0-23.3-.1-24-4-21.4zM327 207.1v23.1l4.3-2.5c2.3-1.3 11.8-6.6 21-11.7 14.8-8.1 16.6-9.4 15-10.4-2.9-2-39-21.6-39.7-21.6-.3 0-.6 10.4-.6 23.1zM381 219.5c0 12.4.3 22.5.6 22.5.8 0 41.4-22.3 41.1-22.6-.7-.6-40.7-22.4-41.1-22.4-.3 0-.6 10.1-.6 22.5zM348.2 220.5c-11.2 6.2-20.5 11.5-20.7 11.7-.4.4 4.3 3 33.7 19.1l8.8 4.8v-23.6c0-12.9-.3-23.5-.7-23.4-.5.1-9.9 5.2-21.1 11.4zM102 232.5c0 12.4.2 22.5.6 22.5.4 0 40.2-21.7 41.1-22.5.4-.2-40.2-22.5-41-22.5-.4 0-.7 10.1-.7 22.5zM393.3 246.4c-11.2 6.1-20.3 11.4-20.3 11.7 0 .6 40.3 22.9 41.4 22.9.3 0 .6-10.4.6-23 0-12.7-.3-23-.7-22.9-.5.1-9.9 5.1-21 11.3zM417 257.9c0 12.7.3 23.1.6 23.1 1.1 0 41.4-22.3 41.4-22.9 0-.5-38.2-21.7-41.2-22.9-.4-.2-.8 10-.8 22.7zM84 284.1c0 13.4.4 22.9.9 22.7 2.5-.9 41.1-22.4 41.1-22.9 0-.6-40.3-22.9-41.4-22.9-.3 0-.6 10.4-.6 23.1zM348.5 272c-11 6-20.1 11.3-20.2 11.7-.3.7 39.6 23.3 41.1 23.3.3 0 .6-10.4.6-23 0-12.7-.3-23-.7-23-.5 0-9.8 4.9-20.8 11zM305 296.9c-10.7 5.9-20.3 11.2-21.3 11.7-1.6.9 1.4 2.9 19.3 12.8 11.7 6.4 21.4 11.5 21.6 11.3.3-.2.3-10.8.2-23.5l-.3-23.1-19.5 10.8zM327 310.1v23.1l4.3-2.5c2.3-1.3 11.8-6.6 21-11.7 14.8-8.1 16.6-9.4 15-10.4-2.9-2-39-21.6-39.7-21.6-.3 0-.6 10.4-.6 23.1zM167.7 323.9c-11.4 6.3-20.6 11.5-20.5 11.6 1.8 1.4 41.1 22.5 41.4 22.2.2-.2.3-10.5.2-22.8l-.3-22.4-20.8 11.4zM192 335.3v23.5l20.6-11.3c11.3-6.2 20.7-11.5 21-11.8.3-.3-7-4.7-16.3-9.7-9.2-5.1-18.7-10.4-21-11.7l-4.3-2.5v23.5zM102 335.5c0 12.4.2 22.5.6 22.5.4 0 40.2-21.7 41.1-22.5.4-.2-40.2-22.5-41-22.5-.4 0-.7 10.1-.7 22.5zM257.5 324.1c-10.9 6-20 11.1-20.1 11.2-.2.2 38.9 21.9 40.7 22.5.5.2.9-9.1.9-22.2 0-12.4-.3-22.6-.7-22.6-.5 0-9.8 5-20.8 11.1zM71.3 349.4C60.2 355.5 51.1 360.7 51 361c0 .6 40.4 23 41.4 23 .3 0 .6-10.4.6-23 0-12.7-.3-23-.7-22.9-.5.1-9.9 5.1-21 11.3zM213.3 349.4c-11.2 6.1-20.2 11.5-20 11.9.1.4 9.2 5.7 20.2 11.7l20 11 .3-11.5c.1-6.3.1-16.6 0-22.9l-.3-11.4-20.2 11.2zM237 361c0 12.6.2 23 .5 23 1.5 0 41.3-22.5 40.9-23.1-.3-.5-30-17.1-39.1-21.8l-2.3-1.2V361zM102 387v23.1l2.3-1.2c5.4-2.8 35.4-19.3 37.6-20.6 2.3-1.5 1.7-1.8-18.3-12.9-11.4-6.3-20.9-11.4-21.2-11.4-.2 0-.4 10.4-.4 23zM168.5 375c-11 6-20.1 11.3-20.2 11.7-.2.4 8.8 5.8 19.9 11.9l20.3 11.2.3-11.4c.1-6.3.1-16.6 0-22.9l-.3-11.5-20 11zM122.3 401.3c-11.1 6.2-19.9 11.5-19.5 11.8.4.3 9.8 5.6 21 11.7l20.2 11v-22.9c0-12.6-.3-22.9-.7-22.8-.5 0-9.9 5-21 11.2zM147 413.1v23.1l4.3-2.5c2.3-1.3 11.8-6.6 21-11.7 14.8-8.1 16.6-9.4 15-10.4-2.9-2-39-21.6-39.7-21.6-.3 0-.6 10.4-.6 23.1z"/></svg>